<svg xmlns="http://www.w3.org/2000/svg" width="128" height="128" viewBox="0 0 128 128">
  <!-- Transition: Group A continuing forward, Group B continuing back -->
  <path d="M 56 54 Q 40 48 28 43" stroke="white" stroke-width="3.5" stroke-linecap="round" fill="none"/>
  <path d="M 55 59 Q 38 56 26 52" stroke="white" stroke-width="3.5" stroke-linecap="round" fill="none"/>
  <path d="M 56 66 Q 40 74 28 81" stroke="white" stroke-width="3.5" stroke-linecap="round" fill="none"/>
  <path d="M 72 54 Q 87 43 100 33" stroke="white" stroke-width="3.5" stroke-linecap="round" fill="none"/>
  <path d="M 73 59 Q 89 61 102 62" stroke="white" stroke-width="3.5" stroke-linecap="round" fill="none"/>
  <path d="M 72 66 Q 87 69 100 71" stroke="white" stroke-width="3.5" stroke-linecap="round" fill="none"/>

  <!-- Antennae -->
  <path d="M 57 23 Q 46 12 37 7" stroke="white" stroke-width="2.5" stroke-linecap="round" fill="none"/>
  <path d="M 71 23 Q 82 12 91 7" stroke="white" stroke-width="2.5" stroke-linecap="round" fill="none"/>
  <circle cx="37" cy="7" r="5" fill="white"/>
  <circle cx="91" cy="7" r="5" fill="white"/>

  <!-- Abdomen -->
  <ellipse cx="64" cy="92" rx="22" ry="25" fill="white"/>

  <!-- Thorax -->
  <ellipse cx="64" cy="59" rx="9" ry="8" fill="white"/>

  <!-- Head -->
  <circle cx="64" cy="35" r="15" fill="white"/>

  <!-- Eyes -->
  <circle cx="58" cy="33" r="4" fill="#111111"/>
  <circle cx="70" cy="33" r="4" fill="#111111"/>
  <circle cx="57" cy="32" r="1.5" fill="white"/>
  <circle cx="69" cy="32" r="1.5" fill="white"/>
</svg>
